<?xml version="1.0" standalone="no"?><!DOCTYPE svg PUBLIC "-//W3C//DTD SVG 1.1//EN" "http://www.w3.org/Graphics/SVG/1.1/DTD/svg11.dtd"><svg t="1783914597280" class="icon" viewBox="0 0 1024 1024" version="1.1" xmlns="http://www.w3.org/2000/svg" p-id="40537" xmlns:xlink="http://www.w3.org/1999/xlink" width="200" height="200"><path d="M0 0m213.333333 0l597.333334 0q213.333333 0 213.333333 213.333333l0 597.333334q0 213.333333-213.333333 213.333333l-597.333334 0q-213.333333 0-213.333333-213.333333l0-597.333334q0-213.333333 213.333333-213.333333Z" fill="#FF0040" p-id="40538"></path><path d="M610.858667 277.333333a48.469333 48.469333 0 0 1 48.384 48.576v293.354667a17.493333 17.493333 0 0 0 5.290666 11.84c3.2 3.114667 7.466667 4.821333 11.904 4.8a16.96 16.96 0 0 0 11.882667-4.8 17.493333 17.493333 0 0 0 5.290667-11.84v-175.36a48.981333 48.981333 0 0 1 14.122666-34.090667 47.573333 47.573333 0 0 1 67.477334 0 48.405333 48.405333 0 0 1 14.122666 34.133334v153.962666a15.36 15.36 0 0 1-4.458666 10.730667 14.869333 14.869333 0 0 1-10.602667 4.394667 14.784 14.784 0 0 1-10.645333-4.373334 15.210667 15.210667 0 0 1-4.458667-10.752V443.946667a18.133333 18.133333 0 0 0-5.205333-12.608 17.621333 17.621333 0 0 0-28.821334 5.76 18.176 18.176 0 0 0-1.386666 6.848v175.36a48.426667 48.426667 0 0 1-13.952 33.706666 47.018667 47.018667 0 0 1-66.730667 0 48.384 48.384 0 0 1-13.973333-33.706666V325.973333a18.56 18.56 0 0 0-5.589334-12.586666 18.005333 18.005333 0 0 0-12.608-5.12 17.984 17.984 0 0 0-12.629333 5.12 18.56 18.56 0 0 0-5.610667 12.544l-0.021333 373.205333a48.149333 48.149333 0 0 1-13.973333 33.706667c-8.874667 8.917333-20.885333 13.888-33.365334 13.824a46.485333 46.485333 0 0 1-33.365333-13.824 48.384 48.384 0 0 1-13.973333-33.706667v-45.397333c0-8.362667 6.762667-15.146667 15.082666-15.146667 8.32 0 15.061333 6.784 15.061334 15.146667v45.376a17.194667 17.194667 0 1 0 34.389333 0V325.909333A48.469333 48.469333 0 0 1 610.858667 277.333333z m-131.114667 0a48.469333 48.469333 0 0 1 48.362667 48.576v270.4a15.317333 15.317333 0 0 1-9.322667 14.016 14.826667 14.826667 0 0 1-5.76 1.130667 14.826667 14.826667 0 0 1-13.866667-9.322667 15.317333 15.317333 0 0 1-1.173333-5.824V325.909333a18.56 18.56 0 0 0-5.397333-12.992 18.005333 18.005333 0 0 0-12.842667-5.312 18.005333 18.005333 0 0 0-12.864 5.333334 18.56 18.56 0 0 0-5.376 12.970666v328.832a48.725333 48.725333 0 0 1-14.122667 34.090667c-8.96 9.002667-21.12 14.037333-33.706666 13.973333a47.232 47.232 0 0 1-33.749334-13.973333 48.725333 48.725333 0 0 1-14.122666-34.090667V443.946667a18.048 18.048 0 0 0-10.965334-16.469334 17.365333 17.365333 0 0 0-6.741333-1.322666 17.365333 17.365333 0 0 0-12.48 5.184 17.877333 17.877333 0 0 0-5.226667 12.608v89.173333a49.002667 49.002667 0 0 1-14.122666 34.112 47.530667 47.530667 0 0 1-67.477334 0A48.341333 48.341333 0 0 1 234.666667 533.12v-32.341333c0-8.384 6.741333-15.146667 15.061333-15.146667a15.146667 15.146667 0 0 1 15.104 15.146667v32.341333c0 9.813333 7.914667 17.770667 17.706667 17.770667 9.770667 0 17.706667-7.957333 17.706666-17.770667v-89.194667c0.064-12.8 5.141333-25.066667 14.122667-34.090666 8.96-9.002667 21.077333-14.037333 33.706667-13.973334a47.253333 47.253333 0 0 1 33.728 13.973334c8.96 9.002667 14.08 21.269333 14.144 34.090666v210.816c0 9.834667 7.914667 17.792 17.706666 17.792 9.792 0 17.706667-7.957333 17.706667-17.792V325.909333A48.469333 48.469333 0 0 1 479.744 277.333333z" fill="#FFFFFF" p-id="40539"></path></svg>